# xmcd
#
# Track frame offsets: 
#        150
#        18225
#        51127
#
# Disc length: 1010 seconds
#
# Revision: 0
# Processed by: cddbd v1.5.2PL0 Copyright (c) Steve Scherf et al.
# Submitted via: ExactAudioCopy v1.0b3
#
DISCID=1a03f003
DTITLE=D4P - Stalingrad (Remix)
DYEAR=1900
DGENRE=
TTITLE0=Stalingrad (Radio Edit)
TTITLE1=Stalingrad (Extended Version)
TTITLE2=Stalingrad (Out Law Dub Version)
EXTD=
EXTT0=
EXTT1=
EXTT2=
PLAYORDER=
